<svg xmlns="http://www.w3.org/2000/svg" fill="#fff" width="2048" height="2048"><g color="#222"><path style="line-height:normal;block-progression:tb;marker:none" d="M1390 0c-50 0-101 19-139 57L823 485c-76 76-76 202 0 278l28 28 140-141-26-26 425-425 459 459-425 425-26-26-141 140 28 28c76 76 202 76 278 0l428-428c76-76 76-202 0-278L1529 57c-38-38-88-57-139-57zM624 766c-50 0-101 19-139 57L57 1251c-76 76-76 202 0 278l462 462c76 76 202 76 278 0l428-428c76-76 76-202 0-278l-28-28-140 141 26 26-425 425-459-459 425-425 26 26 141-140-28-28c-38-38-88-57-139-57z" font-weight="400" overflow="visible"/><path fill-rule="evenodd" style="marker:none" d="M1207 573c-12 0-23 4-32 13l-589 589a44 44 0 000 63l224 224c18 18 45 18 63 0l588-589c19-18 19-45 1-63l-224-224c-9-9-20-13-31-13z" overflow="visible"/></g></svg>